<svg width="48" height="48" viewBox="0 0 48 48" fill="none" xmlns="http://www.w3.org/2000/svg">
<g id="diamond 2">
<path id="Vector" d="M38.0217 6.99844C37.751 6.63749 37.3999 6.34453 36.9964 6.14276C36.5928 5.94098 36.1479 5.83594 35.6967 5.83594H12.4467C11.9955 5.83594 11.5505 5.94098 11.147 6.14276C10.7434 6.34453 10.3924 6.63749 10.1217 6.99844L3.65624 15.6222C3.26386 16.1457 3.05959 16.7863 3.07647 17.4403C3.09335 18.0943 3.33039 18.7234 3.74924 19.226L21.8416 41.1198C22.1144 41.4455 22.4553 41.7074 22.8402 41.8872C23.2252 42.0669 23.6449 42.1601 24.0697 42.1601C24.4946 42.1601 24.9143 42.0669 25.2992 41.8872C25.6842 41.7074 26.0251 41.4455 26.2979 41.1198L44.3902 19.226C44.8091 18.7234 45.0461 18.0943 45.063 17.4403C45.0799 16.7863 44.8756 16.1457 44.4832 15.6222L38.0217 6.99844Z" stroke="black" stroke-width="1.5" stroke-linecap="round" stroke-linejoin="round"/>
<path id="Vector_2" d="M11.1137 6.15918L24.0717 42.1637" stroke="black" stroke-width="1.5" stroke-linecap="round" stroke-linejoin="round"/>
<path id="Vector_3" d="M37.0278 6.15918L24.0717 42.1637" stroke="black" stroke-width="1.5" stroke-linecap="round" stroke-linejoin="round"/>
<path id="Vector_4" d="M3.07111 17.4609H45.0625" stroke="black" stroke-width="1.5" stroke-linecap="round" stroke-linejoin="round"/>
<path id="Vector_5" d="M15.353 17.4609L24.0717 5.83594L32.7905 17.4609" stroke="black" stroke-width="1.5" stroke-linecap="round" stroke-linejoin="round"/>
</g>
</svg>
