<svg width="41" height="33" viewBox="0 0 41 33" fill="none" xmlns="http://www.w3.org/2000/svg">
<g id="SVG" clip-path="url(#clip0_1_394)">
<path id="Vector" d="M32.1061 13.8216C33.2053 13.9028 34.2755 14.212 35.2486 14.7295C36.2217 15.2469 37.0764 15.9613 37.7584 16.8271C39.2008 18.6898 39.9482 20.9972 39.8719 23.3519C39.8719 25.8241 39.0478 27.8795 37.4094 29.5277C35.7612 31.1758 33.5313 31.9999 30.7003 31.9999C27.9857 31.9999 25.814 31.1758 24.1658 29.5277C22.5177 27.7632 21.7033 25.1164 21.7033 21.5874C21.7033 17.942 23.2254 13.8797 26.2891 9.41029C29.343 4.8245 32.523 1.76084 35.8194 0.238706C36.2847 -0.00367172 36.9925 0.296877 37.9329 1.11127C38.8733 1.94505 39.3484 2.6431 39.3484 3.2345C35.9357 5.59041 33.5313 9.11944 32.1158 13.8216H32.1061ZM11.6494 13.8216C12.717 13.9202 13.7528 14.238 14.692 14.7552C15.6312 15.2723 16.4536 15.9776 17.1078 16.8271C18.5536 18.6885 19.3045 20.9961 19.231 23.3519C19.231 25.8241 18.4069 27.8795 16.7588 29.5277C15.2269 31.1758 13.0552 31.9999 10.2339 31.9999C7.51931 31.9999 5.3476 31.1758 3.69943 29.5277C2.05126 27.7632 1.22717 25.1164 1.22717 21.5874C1.22717 17.942 2.70083 13.8797 5.63845 9.41029C8.70211 4.8245 11.9403 1.76084 15.3433 0.238706C15.8183 -0.00367172 16.5261 0.296877 17.4665 1.11127C18.4069 1.94505 18.8723 2.6431 18.8723 3.2345C15.4693 5.59041 13.0552 9.11944 11.6397 13.8216H11.6494Z" fill="#80BC40"/>
</g>
<defs>
<clipPath id="clip0_1_394">
<rect width="39.75" height="32" fill="white" transform="translate(0.5 0.090332)"/>
</clipPath>
</defs>
</svg>
